/* XPM */
static char *_57279268ab54563fd94dbd0ddc52c26U42UddBflgxsuU1V[] = {
/* columns rows colors chars-per-pixel */
"64 64 6 1 ",
"  c #642400",
". c #8E3600",
"X c #AF4000",
"o c #876247",
"O c #946B4E",
"+ c #A07755",
/* pixels */
"++++++++++++++++++++++++++++++++++++++++++++++++++++++++++++++++",
"++++++++++++++++++++++++++++++++++++++++++++++++++++++++++++++++",
"XXXXX.+++XXXXXXXXXXXXXXXXXXX.+++XXXXXXXXXXXXXXXXX.+++XXXXXXXXXXX",
"..... o++X.................. o++X................ o++X..........",
"..... o++X.................. o++X................ o++X..........",
"..... o++X.................. o++X................ o++X..........",
"..... o++X.................. o++X................ o++X..........",
"..... o++X.................. o++X................ o++X..........",
"..... o++X.................. o++X................ o++X..........",
"..... o++X.................. o++X................ o++X..........",
"      o++.                   o++.                 o++.          ",
"ooooooo++Ooooooooooooooooooooo++Ooooooooooooooooooo++Ooooooooooo",
"++++++++++++++++++++++++++++++++++++++++++++++++++++++++++++++++",
"++++++++++++++++++++++++++++++++++++++++++++++++++++++++++++++++",
"XXXXXXXXXXXXXXXXX.O++XXXXXXXXXXXXXXXXXX.O++XXXXXXXXXXXXXXXXX.O++",
"X................ o++X................. o++X................ o++",
"X................ o++X................. o++X................ o++",
"X................ o++X................. o++X................ o++",
"X................ o++X................. o++X................ o++",
"X................ o++X................. o++X................ o++",
"X................ o++X................. o++X................ o++",
"X................ o++X................. o++X................ o++",
".                 o++.                  o++.                 o++",
"Ooooooooooooooooooo++Oooooooooooooooooooo++Ooooooooooooooooooo++",
"++++++++++++++++++++++++++++++++++++++++++++++++++++++++++++++++",
"++++++++++++++++++++++++++++++++++++++++++++++++++++++++++++++++",
"XXXXX.+++XXXXXXXXXXXXXXXXXXX.+++XXXXXXXXXXXXXXXXX.+++XXXXXXXXXXX",
"..... o++X.................. o++X................ o++X..........",
"..... o++X.................. o++X................ o++X..........",
"..... o++X.................. o++X................ o++X..........",
"..... o++X.................. o++X................ o++X..........",
"..... o++X.................. o++X................ o++X..........",
"..... o++X.................. o++X................ o++X..........",
"..... o++X.................. o++X................ o++X..........",
"      o++.                   o++.                 o++.          ",
"ooooooo++Ooooooooooooooooooooo++Ooooooooooooooooooo++Ooooooooooo",
"++++++++++++++++++++++++++++++++++++++++++++++++++++++++++++++++",
"++++++++++++++++++++++++++++++++++++++++++++++++++++++++++++++++",
"XXXXXXXXXXXXXXXXX.O++XXXXXXXXXXXXXXXXXX.O++XXXXXXXXXXXXXXXXX.O++",
"X................ o++X................. o++X................ o++",
"X................ o++X................. o++X................ o++",
"X................ o++X................. o++X................ o++",
"X................ o++X................. o++X................ o++",
"X................ o++X................. o++X................ o++",
"X................ o++X................. o++X................ o++",
"X................ o++X................. o++X................ o++",
".                 o++.                  o++.                 o++",
"Ooooooooooooooooooo++Oooooooooooooooooooo++Ooooooooooooooooooo++",
"++++++++++++++++++++++++++++++++++++++++++++++++++++++++++++++++",
"++++++++++++++++++++++++++++++++++++++++++++++++++++++++++++++++",
"XXXXX.+++XXXXXXXXXXXXXXXXXXX.+++XXXXXXXXXXXXXXXXX.+++XXXXXXXXXXX",
"..... o++X.................. o++X................ o++X..........",
"..... o++X.................. o++X................ o++X..........",
"..... o++X.................. o++X................ o++X..........",
"..... o++X.................. o++X................ o++X..........",
"..... o++X.................. o++X................ o++X..........",
"..... o++X.................. o++X................ o++X..........",
"..... o++X.................. o++X................ o++X..........",
"      o++.                   o++.                 o++.          ",
"ooooooo++Ooooooooooooooooooooo++Ooooooooooooooooooo++Ooooooooooo",
"++++++++++++++++++++++++++++++++++++++++++++++++++++++++++++++++",
"++++++++++++++++++++++++++++++++++++++++++++++++++++++++++++++++",
"++++++++++++++++++++++++++++++++++++++++++++++++++++++++++++++++",
"++++++++++++++++++++++++++++++++++++++++++++++++++++++++++++++++"
};
