/* XPM */
static char *f0fa0c28fd9044d1f6b0167cdac3d83bfPvI97Ac5ecSIliL[] = {
/* columns rows colors chars-per-pixel */
"64 64 130 2 ",
"   c #4E3D6A",
".  c #51376F",
"X  c #523C6D",
"o  c #552F75",
"O  c #562F78",
"+  c #5A2E7D",
"@  c #553474",
"#  c #593676",
"$  c #553B71",
"%  c #5A3C75",
"&  c #573078",
"*  c #5B337B",
"=  c #5D3A79",
"-  c #474F5F",
";  c #47555E",
":  c #48555F",
">  c #465C5D",
",  c #495C5E",
"<  c #46645B",
"1  c #4A645E",
"2  c #456C5A",
"3  c #4A6C5E",
"4  c #417E57",
"5  c #45745A",
"6  c #4A735E",
"7  c #447C5A",
"8  c #4A7B5E",
"9  c #4D4566",
"0  c #4C4C64",
"q  c #4E4269",
"w  c #4F4868",
"e  c #514D67",
"r  c #53446C",
"t  c #58476F",
"y  c #544B6A",
"u  c #594C6E",
"i  c #4C5362",
"p  c #4D5B61",
"a  c #515466",
"s  c #535C65",
"d  c #555369",
"f  c #5A546D",
"g  c #575B68",
"h  c #5A5B6B",
"j  c #574171",
"k  c #5A4373",
"l  c #5B4A71",
"z  c #5D5271",
"x  c #4E6361",
"c  c #4E6B60",
"v  c #536464",
"b  c #586667",
"n  c #536C64",
"m  c #586C67",
"M  c #576268",
"N  c #5A636A",
"B  c #5C6D6A",
"V  c #5C6C6B",
"C  c #4E7460",
"Z  c #4E7C60",
"A  c #547364",
"S  c #587467",
"D  c #547B64",
"F  c #587C67",
"G  c #5A7069",
"H  c #597268",
"J  c #5B7269",
"K  c #5C706A",
"L  c #5C736A",
"P  c #5B7569",
"I  c #5A7768",
"U  c #5C756A",
"Y  c #5C766A",
"T  c #597868",
"R  c #5C796A",
"E  c #5C7B6A",
"W  c #5B7D69",
"Q  c #597E68",
"!  c #5C7F6A",
"~  c #3F8557",
"^  c #3E8C57",
"/  c #3C9457",
"(  c #379E55",
")  c #399B57",
"_  c #3D9C59",
"`  c #28AD4F",
"'  c #23B14D",
"]  c #2FA752",
"[  c #2DAA51",
"{  c #34A455",
"}  c #38A157",
"|  c #31A854",
" . c #3AA158",
".. c #408357",
"X. c #44845A",
"o. c #4A835E",
"O. c #438B5B",
"+. c #498B5E",
"@. c #43935C",
"#. c #48925F",
"$. c #429A5C",
"%. c #4E8461",
"&. c #4D8C61",
"*. c #538364",
"=. c #518A64",
"-. c #5B8069",
";. c #5A8269",
":. c #4A9261",
">. c #5F2D83",
",. c #5F2F83",
"<. c #5F3181",
"1. c #602F83",
"2. c #602D84",
"3. c #622D86",
"4. c #622D87",
"5. c #632E88",
"6. c #642D88",
"7. c #642E89",
"8. c #642D8A",
"9. c #662E8B",
"0. c #662E8C",
"q. c #672F8E",
"w. c #682E8E",
"e. c #603083",
"r. c #603480",
"t. c #692F90",
"y. c #6B2F93",
"u. c #6B3092",
"i. c #6C3094",
"p. c #6F3097",
/* pixels */
"p.p.p.u.y.w.u.w.w.w.9.8.6.8.8.4.* 6.* * * * = = = = = z l k = l l l l z l z z z h z N h N N h V h V N V B B B L L L P R S R E E ",
"p.p.u.u.i.w.w.u.q.8.9.8.7.e.8.e.6.6.6.* r.* r.= = = = = = l z k k z z z z z z h f f h h h h h V V V V V B G G L L L R R R E -.;.",
"i.i.i.u.q.u.q.9.8.9.8.8.4.4.4.e.6.* 8.* = = = = = = l = k k l l z z z z z z h z f N h h N V N N V N V N B m Y G L Y Y R I E W E ",
"i.i.u.t.u.q.q.q.9.9.8.6.e.4.4.e.* 8.= * r.= = = z = = z k l l l l z l z h z h h h h N N V h h V V V V V J J G Y S Y Y R W -.-.-.",
"y.y.t.t.w.q.9.8.8.8.4.4.4.,.,.,.* * * = * = = = = = l k l l l l l z f f z f h h h N h h h N b b V N m G G G S G I I I F W W F -.",
"y.t.t.q.q.q.9.9.8.8.4.4.e.4.,.,.* * 8.= = = k k = l = k k l l l z l f f f f h h h h N N N N B b V V B B G G G S I I I F W -.-.-.",
"t.t.t.q.q.8.8.8.4.4.1.,.,.,.+ <.* * * = = = = % l k l l l l l l u f f f z h h h h h h N b V b B V B B B G S S I I F F F F -.-.*.",
"t.t.q.q.8.8.8.8.4.4.4.4.,.1.e.* * * = = = = k k = l k l k l z z u f f f h h h h N h N N N N b m N V B B G G I I I F F -.F *.;.;.",
"w.w.8.8.q.4.4.3.1.1.>.+ >.+ * * * * = = % % % k k j j u t u u f u f f f d h g g b N g b b b b m B A m m A S T T I I Q D *.Q *.;.",
"q.8.w.8.3.4.4.3.4.1.>.,.+ ,.,.* = = # % = = % k k l l t u u u u f f f h h h g g h b b b b m m m m m S S S I S D I F Q Q F *.*.;.",
"q.8.8.8.3.3.3.3.,.,.,.>.+ * * * * # % % % % t k l k t t u y f f f d d h h h b g g N N b m b m m n J S S S T I D D F D -.*.=.*.;.",
"q.9.q.8.1.4.3.,.,.,.+ ,.1.* * * # % % % k k % t t t u t u f d f d d h h g g g g N b b b m m m m A A S A I S I I F F *.*.-.;.;.=.",
"9.8.6.4.3.3.>.>.2.+ ,.+ * * * # # % % % $ % $ t t u u u y u d d d d g g g g g b b b n b n m m n V A A G A D D D T Q F *.*.*.=.=.",
"6.4.4.4.1.2.>.,.,.,.+ + * * # = % % % % k t t t t u u u u f d f d h g g g g g b b b b m n m m S A A A J Q S I D F *.*.-.*.;.=.*.",
"4.4.4.e.2.,.>.1.+ + + * * # # # % % % $ $ t t t u u y y d d d d h d g g g b s b s b v b b n m n A A A D A F D D Q *.*.*.*.;.;.=.",
"e.4.4.e.>.,.>.+ >.+ * * # * # = % $ k k k t t t u y u y d f d d h g g g g b b b b v b n m A A S A S S S D F D D *.*.*.*.=.=.=.=.",
"4.4.3.>.>.>.+ + + + * # # # % % @ $ $ t t t r t t y t d y d d g a g g s s M v b v b n m n m A A A A D D D D D D *.*.*.*.=.*.=.=.",
"e.4.>.,.+ >.+ + + + # * # # % % $ j j $ t t t t y y d d d d d g g g v g v v v n n n n n A m A A A D S D D D D *.D %.%.*.=.=.=.=.",
"e.,.,.,.>.+ + + O * * # # # $ $ $ $ t t t y t e y d d d d g d s a g s M v M v v b n n n n A A A A A A D D *.Z *.*.%.*.*.=.=.=.=.",
",.,.,.+ + >.+ + + # * # # $ $ % k t t r t t y y y d d d g d a g g v v M v v b n n n m n A A A A D D D D D D *.*.*.*.=.=.=.=.=.:.",
">.,.,.+ + + + o # # O # $ % $ $ $ r r r r e y y y a d d g a s s s s s v v v v v n n n C A A A A A Z D Z D *.D *.%.%.%.=.=.+.=.:.",
"+ ,.+ ,.+ + + O * # @ $ $ $ $ t t t r t t t t d y d a d a g g s v v v b v n n n n n A n C A C D D D D Z D %.%.*.*.=.=.=.=.=.=.:.",
"+ >.+ + + + O O # @ @ $ $ $ t X X r w r y y e d y a a a a g s s s s v v v v n n n n n C A A C D Z 8 D *.Z %.*.%.%.=.=.=.=.:.:.:.",
"+ + + + O O # * # @ % % $ $ $ $ r t y t y y y d d a g g s s s s v v v v c v n n C m C A C A D D D D Z D %.*.%.*.%.=.=.=.:.=.:.=.",
"+ + + + O O # O @ # $ $ $ t X t r r y y y e a d a a a s s s s s s v v x x n c c n C n C C A A Z Z Z Z %.%.%.%.%.=.+.=.+.:.:.:.:.",
"+ + O + O O # @ @ $ $ $ X t r r r t y y y e y a a a s a s s v x v v v n n n n n n A C C A Z Z D Z Z *.Z %.*.%.%.+.=.+.=.=.#.:.:.",
"+ + + O O # @ # @ $ . $ X X r r r w w y e d a a a a a s s s p v x v x x n c c C 6 C S C Z A Z Z Z *.%.*.%.%.%.&.o.=.+.#.:.:.=.#.",
"O O O O O # @ $ $ $ $ r j r r r y y y e y a d a s a s s p s v v v x n n c n n C S C 6 C Z Z Z Z *.Z *.%.%.&.&.%.=.+.:.=.:.:.#.#.",
"+ O O O @ @ @ $ . X X r r r r w w y y e e a a a a p s s x p x x v c c c c n c C C C C Z 6 Z Z Z 8 %.8 %.o.&.&.&.+.+.:.:.:.#.#.#.",
"O O O # @ @ @ $ $ X $ X r r r w w y e e a a a a a s p s s v x v x x n n c C C C C C C Z Z Z %.Z %.%.%.%.%.%.+.&.+.=.:.:.#.:.#.#.",
"O O O @ @ . . $ X X X r r r e y y e e a 0 a i i p s p s x x x v c c c c c C c C C Z Z Z 8 Z 8 %.%.%.o.&.+.&.+.=.&.#.:.#.:.$.#.$.",
"O O @ @ @ @ $ X X j r r r r w y e y e a a a s s s p s x x v v c x n c c n C C C 6 A Z Z Z Z Z %.o.%.o.&.&.+.+.+.&.#.:.:.:.:.:.$.",
"o o o . . X $ X       r 9 r y e 0 0 a a a p a p p p x s x x 1 3 c c c c 6 c 6 C 8 C 8 8 Z %.%.%.o.o.o.o.+.+.+.+.+.#.#.#.@.$.#.$.",
"o o . # $ $ $ X X r r q y r 0 e e a 0 i a a s p p x p x x x v v c c c C C C C C C Z Z Z 8 8 %.o.%.o.o.&.o.&.+.#.#.#.#.#.#.$.#.$.",
"# o $ . . . X   r r   y 9 e e e e a a a i p a p s x x x x c c c c 3 C C C C 8 C 8 8 8 8 %.8 o.o.o.o.+.+.+.O.#.O.#.#.@.$.#.$.$.$.",
"o $ . . X $ X r   r r 0 r e e 0 a a a p a p p p x s x x x c c c c c 3 C C 8 C 8 Z 8 Z 8 %.%.o.o.+.o.+.+.#.+.O.#.#.@.#.#.$.$.$.$.",
". @ . . X X     q r 9 e 0 e 0 a 0 i i p a , p x x x x , 3 3 1 c c 3 c 6 6 6 C 8 8 8 o.o.o.o.X.o.+.+.+.+.O.#.#.#.#.#.$.$.#.$.$.$.",
"@ . . X X     r q e q e 0 a e e a a a p p p s x x x x x v 3 c c 6 C 6 C 6 8 8 8 8 8 8 o.o.o.o.o.+.+.+.+.O.#.#.#.$.$.#.$.$.$.$.$.",
". . . X X r r q q e q e e 0 i i a i i p p p , x 3 x 3 x 3 c 3 6 3 6 6 6 6 C 8 8 8 o.o.o.o.o.X.+.X.+.O.O.#.O.@.@.#.$.$.$.$.$.$. .",
". X X X     q q q q e 0 0 a 0 a i i a p p , x x x x x 3 c 3 c c 6 C 6 8 8 8 8 8 8 o.o.o.o.o.+.+.+.O.+.#.#.#.@.@.#.$.$.$.$.$.$. .",
". .       q q 9 9 e 0 0 0 e a i : i p p p p 1 1 v 3 3 3 3 3 3 6 6 6 6 6 6 7 8 8 7 8 o.X.o.O.o.+.O.O.O.@.O.$.O.$.$.$.$.$.( _ _  .",
". X X X q q q w q 0 e 0 0 a 0 p p p i x p 1 1 1 1 1 3 1 3 3 3 6 6 6 6 8 8 8 8 o.o.o.o.o.O.o.O.O.O.@.@.O.@.O.$.$.$.$.$.$.) ) $. .",
"        q q 9 e 0 0 0 0 a i i i : , p p , 1 1 x 1 c 3 3 3 6 6 6 5 6 7 8 7 8 7 o.X.o.X.o.+.o.O.O.O.O.@.@.$.O.@.$.$.$.$.$. .$. . .",
"X     q q w 9 9 a 0 0 0 i i : p p p p x 1 x x x 3 3 3 3 6 3 6 6 6 8 6 8 8 7 o.o.o.X.o.O.O.+.O.O.O.#.O.O.$.$./ @.$.$.$.( $. . . .",
"  q     9 9 e e 0 0 0 i i : : , , , p , 1 1 1 1 3 3 3 3 2 6 5 6 7 6 8 8 7 7 7 o.X.o.O.o.O.O.O.O.@.O.@.@.$.O.$.$. .$. .$. . . . .",
"    9 q 9 9 0 0 0 i i i i p i , p p 1 1 1 x 3 3 3 3 3 2 6 6 6 6 7 8 7 8 7 o.o.o.O.o.o.X.O.O.O.@.@.@.@.@.$.$.( $.$.$. . . . . . .",
"  9 9 9 9 0 0 0 0 i i i : : , p , , 1 1 < 1 1 3 3 2 2 6 5 6 5 8 6 7 8 7 o.4 o.X.X.O.O.O.O.O.O.@.O./ $.O.$.$.$._ _  . . . .} { } ",
"  q q q 0 9 0 0 0 i i p : p , p , 1 1 1 1 1 3 3 3 6 3 6 5 6 6 8 7 8 7 o.o.o...X.o.O.O.O.O.O.@.@.$.@.@.$.$.$.$._ _  . . . .} } | ",
"    - 9 0 0 - 0 - i : : , : , , , 1 < < < 3 2 3 2 2 5 6 6 5 7 5 7 8 4 8 X.......O.......O...O.$./ / $./ $.$.$.( ( _ } } } } { { ",
"9 0   0 0 0 0 - i : a : , , , , , 1 1 < < 3 3 6 2 6 6 5 5 7 8 7 8 4 o.o.X.O.O.O.O.O.@.$.$./ @.O./ $./ $._ _ ( ( _ } } } { { { | ",
"9 9 - 9 0 0 : 0 - : : : , , , 1 1 1 < < 3 2 3 3 2 5 5 5 7 6 7 7 4 4 o...X.X...O.O.O./ ..O.@.O.( / $./ $._ ) ) ) } } { {  .{ | | ",
"9 9 9 - 0 - 0 i i : p , , , 1 1 1 < 3 3 3 3 2 2 5 6 5 6 5 7 8 7 4 o...X.X.O...O...O.O.@.O./ / @.$./ $.( _ _ } ( } } } { | | { | ",
"9 - - 9 - - i : : : : > , , 1 < < < 3 < 2 2 2 2 5 5 5 7 7 7 7 7 7 X.X.....O.O.O.@.O./ O./ / O./ ( / ( $.( ( } }  .{ { | { | | | ",
"9 9 9 0 0 - : i : > , > , 1 , 1 < < 3 2 2 2 5 5 5 6 5 8 5 7 7 X.X.X...o...O.O.O.O.@.O./ @./ ( $.$./ ( $.( ( } { {  .{ { | | | | ",
"- - - - : : - : : > > , , 1 < < < 2 2 2 5 2 2 5 5 5 7 5 7 7 7 7 X.X.X.X...O.O.O.O./ / / @./ / @.( ( ( ( ( ( } } { { { | | | | [ ",
"9 - 9 - - : : : , , > 1 < < < < 3 2 2 2 2 5 2 4 5 7 7 7 7 X.X.X.X.X...O.O.../ ../ O./ @./ @.( ( / ( $.( ( ( } { { { | | [ [ [ [ ",
"- - - - ; ; ; > > > > < < < < < < 2 2 2 2 2 5 5 5 5 7 7 4 X.......O.^ ..O.^ ^ ^ O./ / / ( @.( / $.] ( ( ( { { { { | | | [ | ` ` ",
"- - - ; - ; ; > > > > 1 < < < 2 2 2 2 4 2 4 2 4 4 7 7 4 X...........^ O.^ O./ @./ / / / / ( @.( ( $.( ( { { { { { | | | [ ` [ ` ",
"- - - ; ; ; > > > > > < < < < 2 < 2 2 2 5 5 4 5 5 4 7 4 4 X.....O...O.^ O./ / ^ O./ / / / @.( ( ( ( $.] { { { ] | | | ` | ` ` ` ",
"- - ; ; ; > > > , 1 < < < < 2 2 2 2 4 2 4 2 2 4 4 7 4 X.4 X...^ ..O.O.O.^ ^ ^ / / / ( / ( ( ( ( ( ( { { { { { ] | | ` | ` ` ` ` ",
"- - ; ; ; > > > < < < < 2 < 2 2 2 5 2 4 5 5 4 5 4 4 4 4 ......O.^ O.^ ^ ^ ^ / / / / ( ( ( @.( ] ( ] ( ] { ] ] ] [ [ [ ` ` ` ` ' ",
"- - ; ; > > > > < < < < 2 2 2 2 5 2 4 2 5 4 5 4 7 4 4 ..........^ ^ ^ ^ / / / / / / ( / ( ( ( $.] ( ] ( { ] ] ] [ [ ` ` ` ` ' ' ",
"; ; ; > > > > < > < < < 2 5 5 2 2 5 5 4 5 4 4 4 4 7 ....~ ~ ^ ^ ^ ^ ^ / ^ / / ( / ( ( / ( ( ( ] ( ( ] ( ] ] ] [ [ [ ` ` ' ` ' ' ",
"; ; ; > > < > < < < < 2 2 2 2 2 5 5 5 5 5 4 4 7 ........~ ~ ^ ^ ^ ^ / ^ / / / / / ( / ( ( ( ( ( ] ] ] ] ] [ [ [ ` ` ` ` ` ' ' ' "
};
