/* XPM */
static char *abd7bccae01b43189dd282bc0614ef66DRqw5jUbdhUQUV2q[] = {
/* columns rows colors chars-per-pixel */
"64 64 3 1 ",
"  c #ED1C24",
". c #CC4E00",
"X c #A17655",
/* pixels */
"............X.X.X.X.....X.X.X.X.X.X.............X...............",
".X.X.X...X...X.X.X.X.X.X.X.X.X.X.X.X.X.X.......X.X...X.X.X......",
"......X.X...X.......X...................X.X.X.X.X.X.........X...",
".........X...X.X.X.X.X.X...............X.X.X.X...X.X...X.X......",
"..........X.....X.........X.X.X.X.X.X.X.X.X.X.X.X.X.X...........",
".X.....X.....X.X...............X.X.X.X.......X...X.X............",
"..............X...........X.X.X.X...X.X.X...........X...X.......",
".........X.....X...X.X.X.X.X.....X.................X.X.X...X....",
"..X.......X.X.X.X.X.X.X.......X.X.X.X.......X.....X.X.X...X.....",
"...X...............X.......X.X.X.................X.X.....X......",
"........X.......X.X.X X.X.X.X.X.X.X.X.X.X.. ..X.X.X...X.X.......",
"...X...X.....X....... .X.X...X.....X.....X. .X.X...X...X.X......",
"..........X.........X X.....X.X.X.......X.X X.X.X.X...X.X.X.....",
".X.X.X...X.........X. .X.X.X.X.X.X.X.X.X... .X.....X.X.X...X....",
"..X.X.X.X.X.X.X.X.X.X ..X.X.....X.X........ ......X.X.......X...",
"...X.....X...X.X.X... ...X...X.....X.....X. ...X.......X........",
"..X.X.....X.X.X...X.X ..X.X.......X.....X.. ..X...X...X.X...X...",
".X...X.X.X.X.X.X..... .........X.X.X.X.X.X. .X.X.X.X.....X.....X",
"......X.X.X.......X.. ......X.X...X.X.X...X ....X.X.X.X.X.X...X.",
".X.....X.X.X.....X... .X.X.....X.X.....X.X. .X.X.X.....X...X...X",
"......X.....X.X.X.X.X X...X.X.X...X.X...X.. ..X.......X.X...X.X.",
".X...X.X.....X.X..... .X.X.X.X.X........... .X...X...X.......X..",
"..X.......X.X........ X.X.X.X.............. X...X.......X.X.X...",
".X...X.X.....X.....X. .X.......X.......X.X. .X.X.....X...X.X.X..",
"......X.X.......X.X.X X.X.X.X.X.X.X.X.X.X.. ..X.X.......X...X.X.",
".......X...X.X.X.X.X.X X.X.X.X.X.X.X.X.X.X. .X.......X.X.....X..",
"........X.....X.X.X.X. .X.X.X.X.X.X.X.X.... X.....X.X.....X...X.",
".......X...X.X.X.X.X.. ....X.X.X.X.X.X.X.X. ...........X.X.X.X..",
"......X.X...X.....X.X. .X.X.X.X.X.X...X.... X.....X.X.X...X.X...",
".X.X.X.X.X.X...X...X.X X.X.X.X.X.X.X...X... .X.......X.X.......X",
"X.......X.....X....... .X.X.X.X.X...X...... ....X.X.X...X.....X.",
"...... X.X.X.....X.... ....X.X.....X....... .X.X.X.X...X.X.X.X.X",
"...... .X.......X.X... .X.X.X.....X.X.X.X.X ......X.X.X.X.X.X...",
".....X X.X.X.X.X.X.X.X  .X.X.X.X.X.X.X.X.X. .......X...X.X.....X",
"....X. .X.X.X.X.X.X.X.  X.X.X.X.X...X.X.X.X. ...X.....X.........",
"...X.X X.X...X.X.X.X.X. .X.X.X.....X.X.X.X.X X.X...X.X.X.X......",
"..X... ...X...X.....X.X.X...X.X.X.X.X...X... .X...X.X.X.X...X.X.",
".X...X X.X...X.X.X.X.X.X.X.X.X.X.X.X.X.X.X.. ..X.....X.X...X....",
"X...X. ...X.....X...X.X.X...X.X...X.X.X.X... ...X...X.X...X...X.",
"...X... .X.X.X.X...X.X...X.X...X.X.X.X.X.X.. ......X...X.....X..",
"..X...X ..X.X.X...X.X...X.X.X.X.X.X.X.X.X... ...X...X.X.........",
"........ X.X...X...X.X.X.X.X.X.X.X.X.X.X...X ..X................",
"..X...X. ...X.X.X.X.....X.X.X...X.X.X.X....  .X.........X...X...",
".X....... .X.....X.....X.X.X.X.X.X.X.X.X.X.X...X...X.......X....",
"X...X.... ..X.X.X...X.X.X.X...X.X.X.....X.X.X.X...X...X...X.....",
".X.X.X.X.X X.X.X...................X...X.X.X.X...X...X...X......",
"X.X...X... .X.X...X.......X...X.....X.X.X...X.X.X...X ..X.X.....",
".X...X...X. .X.....X.......X...X.....X...X.X.X.X.X.X. .X.X.....X",
"X...X....... .X.X.X.X.X.X.X.......X.X.X.X.X.X.X...X. .X.......X.",
".X.X.....X.X X.......X...X.X.X.X.X.X.X.X.X.X...X.X. .X...X.X....",
"........X.X.. X.X.......X.X.X.X.X.X...X.X.X.....X.X X...X.X.....",
".X.......X...X ..X.X.X.X.X.X.X...X.X.X.X...X.X...  X.X.X........",
"X.X.....X.....X ....X.X.X...X.X.X.X.X.X.....X... .X.X...X.......",
".........X..... .......X.X.X.X.X.X.X.X.X.X.X..  .X.....X.X.X....",
"X.......X...X...  X.....X.X...X.X...X...X.X   ..X.......X.......",
".X...X............  .X.X...........X..     ..X.X.X.X...........X",
"..X.X.......X.......   ...X......     X.......X.X.X.X.X.X.X.X...",
"...X...................          X.X.X.....X.X.X.X.X.X.X.X.X....",
"....X.......X.......X.X.X.....X.X...X...X.X.........X.X...X.....",
".......X.......X.X.X.......X...X...X.....X.........X.X..........",
"........X.X.X.X.X.X...X.X.....X.X.......X.........X...X.X.X.....",
".....X.X.X.X.X...X.X.X.......X.X.X.X.X.......X.X.X.X.......X.X.X",
"X.X...........X...............X...X.X.X.X.X.X.X.X.X.............",
"...........................X.....X.X.X.X...........X.X.X.X...X.X"
};
